<svg xmlns="http://www.w3.org/2000/svg" viewBox="0 0 1200 630" width="1200" height="630">
  <defs>
    <linearGradient id="bgGrad" x1="0%" y1="0%" x2="100%" y2="100%">
      <stop offset="0%" stop-color="#042f2e"/>
      <stop offset="100%" stop-color="#115e59"/>
    </linearGradient>
    <linearGradient id="accentBar" x1="0%" y1="0%" x2="100%" y2="0%">
      <stop offset="0%" stop-color="#2dd4bf"/>
      <stop offset="100%" stop-color="#0d9488"/>
    </linearGradient>
  </defs>

  <!-- Background Base -->
  <rect width="1200" height="630" fill="url(#bgGrad)"/>

  <!-- Geometric Grid & Glow Overlay -->
  <g opacity="0.07" stroke="#ffffff" stroke-width="1.2">
    <line x1="80" y1="0" x2="80" y2="630"/>
    <line x1="280" y1="0" x2="280" y2="630"/>
    <line x1="480" y1="0" x2="480" y2="630"/>
    <line x1="680" y1="0" x2="680" y2="630"/>
    <line x1="880" y1="0" x2="880" y2="630"/>
    <line x1="1080" y1="0" x2="1080" y2="630"/>
    <line x1="0" y1="120" x2="1200" y2="120"/>
    <line x1="0" y1="260" x2="1200" y2="260"/>
    <line x1="0" y1="400" x2="1200" y2="400"/>
    <line x1="0" y1="540" x2="1200" y2="540"/>
  </g>

  <!-- Top Accent Bar -->
  <rect x="0" y="0" width="1200" height="10" fill="url(#accentBar)"/>

  <!-- Left Side Badge -->
  <g transform="translate(80, 55)">
    <rect x="0" y="0" width="370" height="42" rx="21" fill="#0d9488" opacity="0.25"/>
    <rect x="0" y="0" width="370" height="42" rx="21" fill="none" stroke="#2dd4bf" stroke-width="1.5"/>
    <text x="24" y="27" font-family="-apple-system, BlinkMacSystemFont, 'Segoe UI', Roboto, sans-serif" font-size="14" font-weight="800" fill="#2dd4bf" letter-spacing="1">🤖 ADMISSIONS TECH & AI TOOLS</text>
  </g>

  <!-- Title Section -->
  <text x="80" y="175" font-family="-apple-system, BlinkMacSystemFont, 'Segoe UI', Roboto, sans-serif" font-size="44" font-weight="900" fill="#ffffff" letter-spacing="-0.5">
    <tspan x="80" dy="0">AI-Based CAT Interview Preparation</tspan>
    
  </text>

  <!-- Subtitle -->
  <text x="80" y="255" font-family="-apple-system, BlinkMacSystemFont, 'Segoe UI', Roboto, sans-serif" font-size="20" font-weight="400" fill="#cbd5e1" width="700">
    <tspan x="80" dy="0">Speech Modulation, Lexical Variety &amp; Automated Mock Feedba</tspan>
    <tspan x="80" dy="30">ck Systems...</tspan>
  </text>

  <!-- 3 Pillars/Tags Feature Badges -->
  <g transform="translate(80, 370)">
    <rect x="0" y="0" width="225" height="46" rx="8" fill="#ffffff" fill-opacity="0.08" stroke="#ffffff" stroke-opacity="0.2"/>
    <text x="18" y="28" font-family="sans-serif" font-size="14" font-weight="700" fill="#f8fafc">✓ Filler Word Speech Analy</text>

    <rect x="240" y="0" width="245" height="46" rx="8" fill="#ffffff" fill-opacity="0.08" stroke="#ffffff" stroke-opacity="0.2"/>
    <text x="258" y="28" font-family="sans-serif" font-size="14" font-weight="700" fill="#f8fafc">✓ NLP Transcript Breakdown</text>

    <rect x="500" y="0" width="245" height="46" rx="8" fill="#ffffff" fill-opacity="0.08" stroke="#ffffff" stroke-opacity="0.2"/>
    <text x="518" y="28" font-family="sans-serif" font-size="14" font-weight="700" fill="#f8fafc">✓ Simulated AI Prompts</text>
  </g>

  <!-- Specialized Right-side Visual Graphic for this specific title -->
  
      <!-- AI Waveform & Brain Graph -->
      <g transform="translate(860, 210)">
        <circle cx="100" cy="90" r="70" fill="#134e4a" stroke="#2dd4bf" stroke-width="3"/>
        <path d="M50 90 Q75 40 100 90 T150 90" fill="none" stroke="#2dd4bf" stroke-width="4"/>
        <path d="M60 90 Q80 130 100 90 T140 90" fill="none" stroke="#5eead4" stroke-width="3" stroke-dasharray="4 4"/>
        <circle cx="100" cy="90" r="10" fill="#2dd4bf"/>
        <text x="100" y="195" text-anchor="middle" font-family="sans-serif" font-size="14" font-weight="700" fill="#2dd4bf">AI Cadence Analytics</text>
      </g>
    

  <!-- Footer Branding -->
  <g transform="translate(80, 545)">
    <text x="0" y="22" font-family="-apple-system, BlinkMacSystemFont, 'Segoe UI', Roboto, sans-serif" font-size="26" font-weight="900" fill="#d4af37" letter-spacing="1">MBA WIZARDS</text>
    <text x="0" y="44" font-family="-apple-system, BlinkMacSystemFont, 'Segoe UI', Roboto, sans-serif" font-size="13" font-weight="500" fill="#94a3b8">Mentored by Mr. Surinder Gupta (IIT Roorkee Alum, 25+ Yrs Exp) • IIM Interview Masterclass</text>
    <text x="1040" y="30" text-anchor="end" font-family="-apple-system, BlinkMacSystemFont, 'Segoe UI', Roboto, sans-serif" font-size="16" font-weight="700" fill="#2dd4bf">mbawizards.co.in</text>
  </g>
</svg>