<svg xmlns="http://www.w3.org/2000/svg" viewBox="0 0 1200 630" width="1200" height="630">
  <defs>
    <linearGradient id="bgGrad" x1="0%" y1="0%" x2="100%" y2="100%">
      <stop offset="0%" stop-color="#042f2e"/>
      <stop offset="100%" stop-color="#0e7490"/>
    </linearGradient>
    <linearGradient id="accentBar" x1="0%" y1="0%" x2="100%" y2="0%">
      <stop offset="0%" stop-color="#22d3ee"/>
      <stop offset="100%" stop-color="#0891b2"/>
    </linearGradient>
  </defs>

  <!-- Background Base -->
  <rect width="1200" height="630" fill="url(#bgGrad)"/>

  <!-- Geometric Grid & Glow Overlay -->
  <g opacity="0.07" stroke="#ffffff" stroke-width="1.2">
    <line x1="80" y1="0" x2="80" y2="630"/>
    <line x1="280" y1="0" x2="280" y2="630"/>
    <line x1="480" y1="0" x2="480" y2="630"/>
    <line x1="680" y1="0" x2="680" y2="630"/>
    <line x1="880" y1="0" x2="880" y2="630"/>
    <line x1="1080" y1="0" x2="1080" y2="630"/>
    <line x1="0" y1="120" x2="1200" y2="120"/>
    <line x1="0" y1="260" x2="1200" y2="260"/>
    <line x1="0" y1="400" x2="1200" y2="400"/>
    <line x1="0" y1="540" x2="1200" y2="540"/>
  </g>

  <!-- Top Accent Bar -->
  <rect x="0" y="0" width="1200" height="10" fill="url(#accentBar)"/>

  <!-- Left Side Badge -->
  <g transform="translate(80, 55)">
    <rect x="0" y="0" width="370" height="42" rx="21" fill="#0891b2" opacity="0.25"/>
    <rect x="0" y="0" width="370" height="42" rx="21" fill="none" stroke="#22d3ee" stroke-width="1.5"/>
    <text x="24" y="27" font-family="-apple-system, BlinkMacSystemFont, 'Segoe UI', Roboto, sans-serif" font-size="14" font-weight="800" fill="#22d3ee" letter-spacing="1">⚖️ XLRI JAMSHEDPUR & DELHI</text>
  </g>

  <!-- Title Section -->
  <text x="80" y="175" font-family="-apple-system, BlinkMacSystemFont, 'Segoe UI', Roboto, sans-serif" font-size="44" font-weight="900" fill="#ffffff" letter-spacing="-0.5">
    <tspan x="80" dy="0">XLRI Interview Questions (BM &amp; H</tspan>
    <tspan x="80" dy="54">RM)</tspan>
  </text>

  <!-- Subtitle -->
  <text x="80" y="310" font-family="-apple-system, BlinkMacSystemFont, 'Segoe UI', Roboto, sans-serif" font-size="20" font-weight="400" fill="#cbd5e1" width="700">
    <tspan x="80" dy="0">Ethical Decision Dilemmas, XAT Essay Defense &amp; High-Stakes</tspan>
    <tspan x="80" dy="30"> Faculty Panels...</tspan>
  </text>

  <!-- 3 Pillars/Tags Feature Badges -->
  <g transform="translate(80, 410)">
    <rect x="0" y="0" width="225" height="46" rx="8" fill="#ffffff" fill-opacity="0.08" stroke="#ffffff" stroke-opacity="0.2"/>
    <text x="18" y="28" font-family="sans-serif" font-size="14" font-weight="700" fill="#f8fafc">✓ Ethical Dilemma Caselets</text>

    <rect x="240" y="0" width="245" height="46" rx="8" fill="#ffffff" fill-opacity="0.08" stroke="#ffffff" stroke-opacity="0.2"/>
    <text x="258" y="28" font-family="sans-serif" font-size="14" font-weight="700" fill="#f8fafc">✓ BM vs HRM Specialization</text>

    <rect x="500" y="0" width="245" height="46" rx="8" fill="#ffffff" fill-opacity="0.08" stroke="#ffffff" stroke-opacity="0.2"/>
    <text x="518" y="28" font-family="sans-serif" font-size="14" font-weight="700" fill="#f8fafc">✓ XAT Essay Interrogation</text>
  </g>

  <!-- Specialized Right-side Visual Graphic for this specific title -->
  
      <!-- Jesuit Ethics Scale & Flame -->
      <g transform="translate(860, 210)">
        <rect x="20" y="25" width="160" height="130" rx="10" fill="#155e75" stroke="#22d3ee" stroke-width="3"/>
        <line x1="100" y1="45" x2="100" y2="125" stroke="#22d3ee" stroke-width="4"/>
        <line x1="50" y1="60" x2="150" y2="60" stroke="#22d3ee" stroke-width="4"/>
        <circle cx="50" cy="85" r="18" fill="#0891b2" stroke="#ffffff" stroke-width="2"/>
        <circle cx="150" cy="85" r="18" fill="#0891b2" stroke="#ffffff" stroke-width="2"/>
        <text x="100" y="190" text-anchor="middle" font-family="sans-serif" font-size="14" font-weight="700" fill="#a5f3fc">For the Greater Good</text>
      </g>
    

  <!-- Footer Branding -->
  <g transform="translate(80, 545)">
    <text x="0" y="22" font-family="-apple-system, BlinkMacSystemFont, 'Segoe UI', Roboto, sans-serif" font-size="26" font-weight="900" fill="#d4af37" letter-spacing="1">MBA WIZARDS</text>
    <text x="0" y="44" font-family="-apple-system, BlinkMacSystemFont, 'Segoe UI', Roboto, sans-serif" font-size="13" font-weight="500" fill="#94a3b8">Mentored by Mr. Surinder Gupta (IIT Roorkee Alum, 25+ Yrs Exp) • IIM Interview Masterclass</text>
    <text x="1040" y="30" text-anchor="end" font-family="-apple-system, BlinkMacSystemFont, 'Segoe UI', Roboto, sans-serif" font-size="16" font-weight="700" fill="#22d3ee">mbawizards.co.in</text>
  </g>
</svg>